<mxfile host="65bd71144e">
    <diagram id="SrV-UW0XpmfEwZ4Fy3ew" name="Page-1">
        <mxGraphModel dx="1836" dy="1540" grid="1" gridSize="10" guides="1" tooltips="1" connect="1" arrows="1" fold="1" page="1" pageScale="1" pageWidth="850" pageHeight="1100" math="0" shadow="0">
            <root>
                <mxCell id="0"/>
                <mxCell id="1" parent="0"/>
                <mxCell id="7" style="edgeStyle=none;html=1;entryX=0.5;entryY=1;entryDx=0;entryDy=0;" parent="1" source="2" target="6" edge="1">
                    <mxGeometry relative="1" as="geometry"/>
                </mxCell>
                <mxCell id="8" style="edgeStyle=none;html=1;entryX=0.5;entryY=1;entryDx=0;entryDy=0;" parent="1" source="2" target="5" edge="1">
                    <mxGeometry relative="1" as="geometry"/>
                </mxCell>
                <mxCell id="10" style="edgeStyle=none;html=1;entryX=0.5;entryY=0;entryDx=0;entryDy=0;" parent="1" source="2" target="9" edge="1">
                    <mxGeometry relative="1" as="geometry"/>
                </mxCell>
                <mxCell id="12" style="edgeStyle=none;html=1;entryX=0.5;entryY=0;entryDx=0;entryDy=0;" parent="1" source="2" target="11" edge="1">
                    <mxGeometry relative="1" as="geometry"/>
                </mxCell>
                <mxCell id="17" style="edgeStyle=none;html=1;" parent="1" source="2" target="16" edge="1">
                    <mxGeometry relative="1" as="geometry"/>
                </mxCell>
                <mxCell id="2" value="user" style="whiteSpace=wrap;html=1;align=center;" parent="1" vertex="1">
                    <mxGeometry x="-100" width="100" height="40" as="geometry"/>
                </mxCell>
                <mxCell id="5" value="user_name" style="ellipse;whiteSpace=wrap;html=1;align=center;" parent="1" vertex="1">
                    <mxGeometry x="-30" y="-90" width="100" height="40" as="geometry"/>
                </mxCell>
                <mxCell id="6" value="user_id" style="ellipse;whiteSpace=wrap;html=1;align=center;fontStyle=4;" parent="1" vertex="1">
                    <mxGeometry x="-150" y="-90" width="100" height="40" as="geometry"/>
                </mxCell>
                <mxCell id="9" value="password" style="ellipse;whiteSpace=wrap;html=1;align=center;" parent="1" vertex="1">
                    <mxGeometry x="-180" y="80" width="100" height="40" as="geometry"/>
                </mxCell>
                <mxCell id="11" value="full_name" style="ellipse;whiteSpace=wrap;html=1;align=center;" parent="1" vertex="1">
                    <mxGeometry x="-230" y="30" width="100" height="40" as="geometry"/>
                </mxCell>
                <mxCell id="16" value="role" style="ellipse;whiteSpace=wrap;html=1;align=center;" parent="1" vertex="1">
                    <mxGeometry x="-230" y="-50" width="100" height="40" as="geometry"/>
                </mxCell>
                <mxCell id="25" style="edgeStyle=none;html=1;exitX=0.5;exitY=0;exitDx=0;exitDy=0;entryX=0.5;entryY=0.75;entryDx=0;entryDy=0;entryPerimeter=0;" parent="1" source="26" target="20" edge="1">
                    <mxGeometry relative="1" as="geometry">
                        <mxPoint x="435.01" y="-60" as="sourcePoint"/>
                    </mxGeometry>
                </mxCell>
                <mxCell id="20" value="post_id" style="ellipse;whiteSpace=wrap;html=1;align=center;fontStyle=4;" parent="1" vertex="1">
                    <mxGeometry x="315.01" y="-90" width="100" height="40" as="geometry"/>
                </mxCell>
                <mxCell id="22" value="post_name" style="ellipse;whiteSpace=wrap;html=1;align=center;" parent="1" vertex="1">
                    <mxGeometry x="460" y="60" width="100" height="40" as="geometry"/>
                </mxCell>
                <mxCell id="24" value="post_content" style="ellipse;whiteSpace=wrap;html=1;align=center;" parent="1" vertex="1">
                    <mxGeometry x="450" y="-40" width="100" height="40" as="geometry"/>
                </mxCell>
                <mxCell id="27" style="edgeStyle=none;html=1;exitX=1;exitY=0.25;exitDx=0;exitDy=0;entryX=0;entryY=1;entryDx=0;entryDy=0;" parent="1" source="26" target="24" edge="1">
                    <mxGeometry relative="1" as="geometry"/>
                </mxCell>
                <mxCell id="28" style="edgeStyle=none;html=1;exitX=0.75;exitY=1;exitDx=0;exitDy=0;entryX=0;entryY=0.5;entryDx=0;entryDy=0;" parent="1" source="26" target="22" edge="1">
                    <mxGeometry relative="1" as="geometry">
                        <mxPoint x="479.65466094067256" y="65.85786437626894" as="targetPoint"/>
                    </mxGeometry>
                </mxCell>
                <mxCell id="26" value="post" style="whiteSpace=wrap;html=1;align=center;" parent="1" vertex="1">
                    <mxGeometry x="315.01" width="100" height="40" as="geometry"/>
                </mxCell>
                <mxCell id="33" style="edgeStyle=none;html=1;exitX=0.75;exitY=1;exitDx=0;exitDy=0;entryX=0.5;entryY=0;entryDx=0;entryDy=0;" parent="1" source="29" target="31" edge="1">
                    <mxGeometry relative="1" as="geometry"/>
                </mxCell>
                <mxCell id="34" style="edgeStyle=none;html=1;exitX=0.25;exitY=1;exitDx=0;exitDy=0;entryX=1;entryY=0;entryDx=0;entryDy=0;" parent="1" source="29" target="30" edge="1">
                    <mxGeometry relative="1" as="geometry"/>
                </mxCell>
                <mxCell id="29" value="comment" style="whiteSpace=wrap;html=1;align=center;" parent="1" vertex="1">
                    <mxGeometry x="130" y="170" width="100" height="40" as="geometry"/>
                </mxCell>
                <mxCell id="30" value="comment_id" style="ellipse;whiteSpace=wrap;html=1;align=center;fontStyle=4;" parent="1" vertex="1">
                    <mxGeometry x="40" y="240" width="90" height="40" as="geometry"/>
                </mxCell>
                <mxCell id="31" value="comment_Content" style="ellipse;whiteSpace=wrap;html=1;align=center;" parent="1" vertex="1">
                    <mxGeometry x="170" y="240" width="130" height="40" as="geometry"/>
                </mxCell>
                <mxCell id="35" value="have" style="shape=rhombus;perimeter=rhombusPerimeter;whiteSpace=wrap;html=1;align=center;" parent="1" vertex="1">
                    <mxGeometry x="110" y="-50" width="120" height="60" as="geometry"/>
                </mxCell>
                <mxCell id="36" value="" style="endArrow=none;html=1;rounded=0;exitX=0;exitY=0.5;exitDx=0;exitDy=0;" parent="1" source="35" target="2" edge="1">
                    <mxGeometry relative="1" as="geometry">
                        <mxPoint x="90" y="140" as="sourcePoint"/>
                        <mxPoint x="250" y="140" as="targetPoint"/>
                    </mxGeometry>
                </mxCell>
                <mxCell id="37" value="1" style="resizable=0;html=1;align=right;verticalAlign=bottom;" parent="36" connectable="0" vertex="1">
                    <mxGeometry x="1" relative="1" as="geometry">
                        <mxPoint x="10" y="-7" as="offset"/>
                    </mxGeometry>
                </mxCell>
                <mxCell id="38" value="" style="endArrow=none;html=1;rounded=0;dashed=1;dashPattern=1 2;exitX=1;exitY=0.5;exitDx=0;exitDy=0;entryX=0;entryY=0.5;entryDx=0;entryDy=0;" parent="1" source="35" target="26" edge="1">
                    <mxGeometry relative="1" as="geometry">
                        <mxPoint x="90" y="140" as="sourcePoint"/>
                        <mxPoint x="250" y="140" as="targetPoint"/>
                    </mxGeometry>
                </mxCell>
                <mxCell id="39" value="N" style="resizable=0;html=1;align=right;verticalAlign=bottom;" parent="38" connectable="0" vertex="1">
                    <mxGeometry x="1" relative="1" as="geometry">
                        <mxPoint y="20" as="offset"/>
                    </mxGeometry>
                </mxCell>
                <mxCell id="40" value="have" style="shape=rhombus;perimeter=rhombusPerimeter;whiteSpace=wrap;html=1;align=center;" parent="1" vertex="1">
                    <mxGeometry x="-100" y="150" width="110" height="60" as="geometry"/>
                </mxCell>
                <mxCell id="41" value="" style="endArrow=none;html=1;rounded=0;exitX=0.5;exitY=0;exitDx=0;exitDy=0;entryX=0.5;entryY=1;entryDx=0;entryDy=0;" parent="1" source="40" target="2" edge="1">
                    <mxGeometry relative="1" as="geometry">
                        <mxPoint x="90" y="140" as="sourcePoint"/>
                        <mxPoint x="250" y="140" as="targetPoint"/>
                    </mxGeometry>
                </mxCell>
                <mxCell id="42" value="1" style="resizable=0;html=1;align=right;verticalAlign=bottom;" parent="41" connectable="0" vertex="1">
                    <mxGeometry x="1" relative="1" as="geometry">
                        <mxPoint y="20" as="offset"/>
                    </mxGeometry>
                </mxCell>
                <mxCell id="43" value="" style="endArrow=none;html=1;rounded=0;dashed=1;dashPattern=1 2;exitX=1;exitY=0.5;exitDx=0;exitDy=0;entryX=0;entryY=0.5;entryDx=0;entryDy=0;" parent="1" source="40" target="29" edge="1">
                    <mxGeometry relative="1" as="geometry">
                        <mxPoint x="90" y="140" as="sourcePoint"/>
                        <mxPoint x="250" y="140" as="targetPoint"/>
                    </mxGeometry>
                </mxCell>
                <mxCell id="44" value="N" style="resizable=0;html=1;align=right;verticalAlign=bottom;" parent="43" connectable="0" vertex="1">
                    <mxGeometry x="1" relative="1" as="geometry">
                        <mxPoint x="-10" as="offset"/>
                    </mxGeometry>
                </mxCell>
                <mxCell id="45" value="have" style="shape=rhombus;perimeter=rhombusPerimeter;whiteSpace=wrap;html=1;align=center;" parent="1" vertex="1">
                    <mxGeometry x="345.01" y="120" width="110" height="50" as="geometry"/>
                </mxCell>
                <mxCell id="46" value="" style="endArrow=none;html=1;rounded=0;exitX=0.5;exitY=0;exitDx=0;exitDy=0;entryX=0.5;entryY=1;entryDx=0;entryDy=0;" parent="1" source="45" target="26" edge="1">
                    <mxGeometry relative="1" as="geometry">
                        <mxPoint x="195.01" y="90" as="sourcePoint"/>
                        <mxPoint x="355.01" y="90" as="targetPoint"/>
                    </mxGeometry>
                </mxCell>
                <mxCell id="47" value="1" style="resizable=0;html=1;align=right;verticalAlign=bottom;" parent="46" connectable="0" vertex="1">
                    <mxGeometry x="1" relative="1" as="geometry">
                        <mxPoint y="20" as="offset"/>
                    </mxGeometry>
                </mxCell>
                <mxCell id="48" value="" style="endArrow=none;html=1;rounded=0;dashed=1;dashPattern=1 2;exitX=0;exitY=1;exitDx=0;exitDy=0;entryX=1;entryY=0.25;entryDx=0;entryDy=0;" parent="1" source="45" target="29" edge="1">
                    <mxGeometry relative="1" as="geometry">
                        <mxPoint x="270" y="200" as="sourcePoint"/>
                        <mxPoint x="290" y="150" as="targetPoint"/>
                    </mxGeometry>
                </mxCell>
                <mxCell id="49" value="N" style="resizable=0;html=1;align=right;verticalAlign=bottom;" parent="48" connectable="0" vertex="1">
                    <mxGeometry x="1" relative="1" as="geometry">
                        <mxPoint x="20" y="20" as="offset"/>
                    </mxGeometry>
                </mxCell>
            </root>
        </mxGraphModel>
    </diagram>
</mxfile>